<svg width="70" height="70" viewBox="0 0 70 70" fill="none" xmlns="http://www.w3.org/2000/svg">
    <path fill-rule="evenodd" clip-rule="evenodd"
        d="M42.8945 33.7908C43.5401 34.4826 43.4965 35.561 42.7971 36.1995L36.765 41.7065C36.1048 42.3092 35.0872 42.3092 34.427 41.7065L28.3947 36.1995C27.6953 35.561 27.6516 34.4826 28.2973 33.7909C28.9429 33.0991 30.0333 33.056 30.7327 33.6945L33.8725 36.5609L33.8725 19.9995C33.8725 19.0581 34.6441 18.2949 35.5959 18.2949C36.5478 18.2949 37.3194 19.0581 37.3194 19.9995L37.3194 36.5608L40.4591 33.6945C41.1585 33.056 42.2489 33.0991 42.8945 33.7908Z"
        fill="#008A5E"></path>
    <path
        d="M28.4375 47.8184C27.6091 47.8184 26.9375 48.4899 26.9375 49.3184C26.9375 50.1468 27.6091 50.8184 28.4375 50.8184V47.8184ZM41.5625 50.8184C42.3909 50.8184 43.0625 50.1468 43.0625 49.3184C43.0625 48.4899 42.3909 47.8184 41.5625 47.8184V50.8184ZM28.4375 50.8184H41.5625V47.8184H28.4375V50.8184Z"
        fill="#008A5E"></path>
    <path
        d="M61.25 35C61.25 49.4975 49.4975 61.25 35 61.25C20.5025 61.25 8.75 49.4975 8.75 35C8.75 20.5025 20.5025 8.75 35 8.75C49.4975 8.75 61.25 20.5025 61.25 35Z"
        stroke="#008A5E" stroke-width="3"></path>
</svg>